<svg width="481" height="115" viewBox="0 0 481 115" fill="none" xmlns="http://www.w3.org/2000/svg">
<path d="M1.992 72.44C25.3733 73.72 41.2027 74.36 49.48 74.36C51.4427 74.36 52.9787 73.8053 54.088 72.696C55.2827 71.5013 55.88 69.9227 55.88 67.96V56.44H26.44C17.48 56.44 10.952 54.4347 6.856 50.424C2.84533 46.328 0.84 39.8 0.84 30.84V27C0.84 18.04 2.84533 11.5547 6.856 7.544C10.952 3.448 17.48 1.39999 26.44 1.39999H71.368V19.32H31.56C26.44 19.32 23.88 21.88 23.88 27V29.56C23.88 34.68 26.44 37.24 31.56 37.24H54.6C62.9627 37.24 69.1067 39.2027 73.032 43.128C76.9573 47.0533 78.92 53.1973 78.92 61.56V67.96C78.92 76.3227 76.9573 82.4667 73.032 86.392C69.1067 90.3173 62.9627 92.28 54.6 92.28C50.248 92.28 45.64 92.1947 40.776 92.024L29 91.512C20.296 91.0853 11.2933 90.488 1.992 89.72V72.44ZM111.55 64.12V91H89.15V1.39999H111.55V46.84H121.79L135.87 23.16H159.55L140.35 55.8L159.55 91H135.87L121.15 64.12H111.55ZM183.82 114.04C179.297 114.04 173.751 113.613 167.18 112.76V96.12H178.7C181.943 96.12 184.033 95.224 184.972 93.432C185.996 91.64 185.825 89.1227 184.46 85.88L158.22 23.16H181.9L197.9 66.68L211.34 23.16H235.02L209.42 93.56C206.945 100.301 203.745 105.379 199.82 108.792C195.895 112.291 190.561 114.04 183.82 114.04ZM283.7 91H260.66V19.32H233.78V1.39999H310.58V19.32H283.7V91ZM350.94 41.72C345.564 41.72 340.017 43 334.3 45.56V91H311.9V23.16H331.74L333.02 31.48C340.359 25.08 348.039 21.88 356.06 21.88H361.82V41.72H350.94ZM398.935 25.72V91H376.535V43H366.935V25.72H398.935ZM376.535 0.119995H398.935V18.04H376.535V0.119995ZM449.535 40.44C445.012 40.44 439.892 41.2933 434.175 43V73.72H453.375C456.788 73.72 458.495 72.0133 458.495 68.6V44.92C458.495 43.64 458.068 42.5733 457.215 41.72C456.362 40.8667 455.295 40.44 454.015 40.44H449.535ZM434.175 91V112.76H411.775V23.16H431.615L432.895 29.56C436.906 26.9147 441.002 24.9947 445.183 23.8C449.45 22.52 453.034 21.88 455.935 21.88H461.695C467.498 21.88 472.148 23.6293 475.647 27.128C479.146 30.6267 480.895 35.2773 480.895 41.08V70.52C480.895 76.92 479.06 81.9547 475.391 85.624C471.807 89.208 466.815 91 460.415 91H434.175Z" fill="white"/>
</svg>
